<?xml version="1.0" encoding="utf-8"?>
<!-- Generator: Adobe Illustrator 18.0.0, SVG Export Plug-In . SVG Version: 6.00 Build 0)  -->
<!DOCTYPE svg PUBLIC "-//W3C//DTD SVG 1.1//EN" "http://www.w3.org/Graphics/SVG/1.1/DTD/svg11.dtd">
<svg version="1.1" id="Layer_1" xmlns="http://www.w3.org/2000/svg" xmlns:xlink="http://www.w3.org/1999/xlink" x="0px" y="0px"
	 viewBox="0 0 27.7 27.7" enable-background="new 0 0 27.7 27.7" xml:space="preserve">
<g>
	<path fill="#FFFFFF" d="M13.8,0C6.2,0,0,6.2,0,13.8s6.2,13.8,13.8,13.8s13.8-6.2,13.8-13.8C27.7,6.2,21.5,0,13.8,0z M13.8,26.8
		c-7.2,0-13-5.8-13-13s5.8-13,13-13c7.2,0,13,5.8,13,13C26.8,21,21,26.8,13.8,26.8z"/>
	<polygon fill="#FFFFFF" points="13.8,18.2 6.9,9.7 5.8,9.7 13.8,19.5 21.9,9.7 20.8,9.7 	"/>
</g>
</svg>
