<?xml version="1.0" encoding="utf-8"?>
<!-- Generator: Adobe Illustrator 18.0.0, SVG Export Plug-In . SVG Version: 6.00 Build 0)  -->
<!DOCTYPE svg PUBLIC "-//W3C//DTD SVG 1.1//EN" "http://www.w3.org/Graphics/SVG/1.1/DTD/svg11.dtd">
<svg version="1.1" id="Layer_1" xmlns="http://www.w3.org/2000/svg" xmlns:xlink="http://www.w3.org/1999/xlink" x="0px" y="0px"
	 viewBox="0 0 34.1 16.8" enable-background="new 0 0 34.1 16.8" xml:space="preserve">
<path fill="#FFFFFF" d="M17.1,0C9.6,0,3.2,3.3,0.1,8.2C0,8.3,0,8.5,0.1,8.6c3.1,4.9,9.6,8.2,17,8.2c7.4,0,13.9-3.3,17-8.2
	c0.1-0.1,0.1-0.3,0-0.4C30.9,3.3,24.5,0,17.1,0L17.1,0z M17.1,0.8c7.1,0,13.2,3.1,16.2,7.6c-3,4.5-9.1,7.7-16.2,7.7
	S3.9,12.9,0.8,8.4C3.9,3.9,10,0.8,17.1,0.8L17.1,0.8z M17.1,3c-2.9,0-5.3,2.4-5.3,5.4c0,3,2.4,5.4,5.3,5.4c2.9,0,5.3-2.4,5.3-5.4
	C22.4,5.4,20,3,17.1,3L17.1,3z M17.1,3.8c2.5,0,4.6,2.1,4.6,4.6c0,2.5-2,4.6-4.6,4.6s-4.6-2.1-4.6-4.6C12.5,5.9,14.5,3.8,17.1,3.8
	L17.1,3.8z"/>
</svg>
