<?xml version="1.0" encoding="utf-8"?>
<!-- Generator: Adobe Illustrator 18.0.0, SVG Export Plug-In . SVG Version: 6.00 Build 0)  -->
<svg version="1.2" baseProfile="tiny" id="Layer_1" xmlns="http://www.w3.org/2000/svg" xmlns:xlink="http://www.w3.org/1999/xlink"
	 x="0px" y="0px" viewBox="0 0 55.6 32" xml:space="preserve">
<g>
	<rect x="0.4" y="24.2" fill="#FFFFFD" width="2.2" height="7.8"/>
	<polygon fill="#FFFFFD" points="3.9,32 3.9,24.2 6.1,24.2 9,28.7 9,24.2 11.2,24.2 11.2,32 8.9,32 6.1,27.5 6.1,32 	"/>
	<polygon fill="#FFFFFD" points="19.4,24.2 19.4,26.1 21.2,26.1 21.2,32 23.4,32 23.4,26.1 25.3,26.1 25.3,24.2 	"/>
	<rect x="26.1" y="24.2" fill="#FFFFFD" width="2.2" height="7.8"/>
	<polygon fill="#FFFFFD" points="29.2,24.2 29.2,26.1 31.1,26.1 31.1,32 33.3,32 33.3,26.1 35.2,26.1 35.2,24.2 	"/>
	<polygon fill="#FFFFFD" points="44,24.2 44,26.1 45.8,26.1 45.8,32 48.1,32 48.1,26.1 49.9,26.1 49.9,24.2 	"/>
	<polygon fill="#FFFFFD" points="50.5,24.2 55.6,24.2 55.6,25.9 52.8,25.9 52.8,27.3 55.6,27.3 55.6,29 52.8,29 52.8,30.4 
		55.6,30.4 55.6,32 50.5,32 	"/>
	<path fill="#FFFFFD" d="M38.2,24.2v5c0,0-0.1,1.1,1.1,1.3c0,0,1.4,0.2,1.6-1.2l0-5h2.2l0,5.5c0,0,0.1,1.8-1.8,2.3l-3.5,0
		c0,0-1.7-0.3-1.8-2.3l0-5.5H38.2z"/>
	<path fill="#FFFFFD" d="M18.5,26.3h-2.3c0,0-0.1-0.7-0.8-0.8c0,0-0.7,0-0.7,0.7c0,0-0.2,0.6,1.2,0.9c0,0,2.5,0.3,2.9,1.7
		c0,0,0.4,0.9-0.3,2.1c0,0-0.5,0.7-1.4,1L14,32c0,0-1.5-0.4-1.8-2.1h2.5c0,0,0,0.7,0.9,0.8c0,0,0.8,0,0.9-0.8c0,0,0.2-0.6-1.2-0.9
		c0,0-3.1-0.5-2.9-2.5c0,0-0.1-2.3,2.8-2.5C15.2,24.1,18.2,23.7,18.5,26.3z"/>
</g>
<g>
	<path fill="#FFFFFD" d="M35.9,3.3h0.2l0.3,0.8h0l0.3-0.8h0.2v1h-0.1V3.7c0-0.1,0-0.2,0-0.2l0,0l-0.3,0.8h-0.1l-0.3-0.8l0,0
		c0,0,0,0.1,0,0.2v0.6h-0.1L35.9,3.3L35.9,3.3z"/>
	<rect x="27.8" y="0.6" fill="#FFFFFD" width="1.3" height="8.2"/>
	<path fill="#FFFFFD" d="M7.7,7.7C6.9,8.5,5.9,8.9,4.6,8.9C2.1,8.9,0,6.9,0,4.5C0,2,2.1,0,4.6,0c1.4,0,2.3,0.5,3.1,1.2L6.7,2.1
		C6.2,1.6,5.5,1.2,4.6,1.2c-1.8,0-3.2,1.4-3.2,3.2s1.4,3.2,3.2,3.2c1.2,0,1.8-0.5,2.3-0.9C7.2,6.5,7.4,6,7.5,5.3H4.6V4.1h4.1
		c0,0.2,0.1,0.5,0.1,0.8C8.7,5.7,8.5,6.9,7.7,7.7z"/>
	<polygon fill="#FFFFFD" points="35.5,4.3 35.4,4.3 35.4,3.4 35.1,3.4 35.1,3.3 35.8,3.3 35.8,3.4 35.5,3.4 	"/>
	<path fill="#FFFFFD" d="M12.1,3.2c-1.6,0-2.8,1.2-2.8,2.9c0,1.7,1.3,2.9,2.8,2.9c1.6,0,2.8-1.2,2.8-2.9C14.9,4.4,13.6,3.2,12.1,3.2
		z M12.1,7.8c-0.9,0-1.6-0.7-1.6-1.7c0-1,0.7-1.7,1.6-1.7c0.9,0,1.6,0.7,1.6,1.7C13.7,7.1,12.9,7.8,12.1,7.8z"/>
	<path fill="#FFFFFD" d="M18.2,3.2c-1.6,0-2.8,1.2-2.8,2.9c0,1.7,1.3,2.9,2.8,2.9c1.6,0,2.8-1.2,2.8-2.9C21.1,4.4,19.8,3.2,18.2,3.2
		z M18.2,7.8c-0.9,0-1.6-0.7-1.6-1.7c0-1,0.7-1.7,1.6-1.7c0.9,0,1.6,0.7,1.6,1.7C19.8,7.1,19.1,7.8,18.2,7.8z"/>
	<path fill="#FFFFFD" d="M32.6,7.8c-0.6,0-1.1-0.3-1.4-0.9L35,5.3L34.9,5c-0.2-0.6-1-1.8-2.5-1.8c-1.5,0-2.7,1.2-2.7,2.9
		c0,1.6,1.2,2.9,2.9,2.9c1.3,0,2.1-0.8,2.4-1.3L34,7C33.6,7.5,33.2,7.8,32.6,7.8z M32.5,4.3c0.5,0,0.9,0.2,1.1,0.6L31,6
		C30.9,4.9,31.8,4.3,32.5,4.3z"/>
	<path fill="#FFFFFD" d="M25.8,3.4v0.5h0c-0.3-0.3-0.8-0.6-1.5-0.6c-1.4,0-2.7,1.3-2.7,2.9c0,1.6,1.3,2.9,2.7,2.9
		c0.7,0,1.2-0.3,1.5-0.7h0v0.4c0,1.1-0.6,1.7-1.5,1.7c-0.8,0-1.3-0.6-1.4-1l-1.1,0.5c0.3,0.8,1.2,1.7,2.5,1.7c1.5,0,2.7-0.9,2.7-3
		V3.4H25.8z M24.4,7.8c-0.9,0-1.5-0.7-1.5-1.7c0-1,0.7-1.8,1.5-1.8c0.9,0,1.5,0.7,1.5,1.8C25.9,7.1,25.3,7.8,24.4,7.8z"/>
</g>
<g>
	<polygon fill="#FFFFFD" points="55.6,21.9 51.5,21.9 51.4,21.9 51.4,21.8 51.4,14.1 53.7,14.1 53.7,20 55.6,20 	"/>
	<path fill="#FFFFFD" d="M7.6,20.6c-0.1,0.1-0.2,0.3-0.3,0.4c-0.6,0.7-1.7,1.1-3,1.1c-0.3,0-0.6,0-0.9-0.1C1.3,21.7,0,20.2,0,18
		c0-2.5,1.6-4.1,4.2-4.1c0.1,0,0.3,0,0.4,0C6.6,14,7.8,15,8.1,16.7H5.7c-0.2-0.7-0.8-1.1-1.5-1.1c-0.1,0-0.1,0-0.2,0
		c-0.9,0.1-1.5,0.7-1.5,1.7v0.8c0,0.9,0,1.3,0.3,1.6C2.8,19.8,2.9,19.9,3,20c0.1,0.1,0.2,0.1,0.3,0.2c0.2,0.1,0.4,0.2,0.6,0.2
		c0.1,0,0.2,0,0.2,0c0.6,0,1-0.2,1.3-0.6c0.1-0.1,0.2-0.3,0.2-0.5l0,0h2.4C8,19.9,7.8,20.3,7.6,20.6z"/>
	<path fill="#FFFFFD" d="M16.1,18.8c0,1.1-0.1,1.6-0.5,2.1c-0.5,0.7-1.7,1.1-3.1,1.1c-2.3,0-3.6-0.9-3.6-2.7v-5.3h2.3l0,0v4.9
		c0,0.8,0.5,1.3,1.3,1.3c0.1,0,0.1,0,0.2,0c0.8-0.1,1.2-0.6,1.2-1.7v-4.6l0,0h2.2l0,0L16.1,18.8L16.1,18.8z"/>
	<polygon fill="#FFFFFD" points="21.8,21.9 17.1,21.9 17.1,14.1 19.3,14.1 19.3,20 21.8,20 	"/>
	<polygon fill="#FFFFFD" points="26.9,15.9 25,15.9 25,21.9 22.8,21.9 22.8,15.9 20.9,15.9 20.9,14.1 26.9,14.1 	"/>
	<path fill="#FFFFFD" d="M34.8,18.8c0,1.1-0.1,1.6-0.5,2.1c-0.5,0.7-1.7,1.1-3.1,1.1c-2.3,0-3.6-0.9-3.6-2.7v-5.3h2.3v4.9
		c0,0.8,0.5,1.3,1.3,1.3c1,0,1.4-0.5,1.4-1.7v-4.6h2.2L34.8,18.8L34.8,18.8z"/>
	<path fill="#FFFFFD" d="M51,21.9L51,21.9l-2.5-7.8H45l-2.4,7.5l-2.1-3l0.2,0c0.9-0.2,1.4-0.9,1.4-2.1c0-0.2,0-0.4,0-0.6
		c0-0.2-0.1-0.3-0.1-0.5c-0.3-0.9-1.2-1.3-2.6-1.3h-3.5v7.8H38v-3.4l2.3,3.4h4.6l0.4-1.3h3l0.4,1.3v0H51z M38,17.5h-0.1v-1.9h0.4
		c0.6,0,1.3,0.1,1.3,0.9C39.6,17.3,39,17.5,38,17.5z M45.7,19.2l1.1-3.7l1.1,3.7H45.7z"/>
</g>
</svg>
