<?xml version="1.0" encoding="utf-8"?>
<!-- Generator: Adobe Illustrator 18.0.0, SVG Export Plug-In . SVG Version: 6.00 Build 0)  -->
<svg version="1.2" baseProfile="tiny" id="Layer_1" xmlns="http://www.w3.org/2000/svg" xmlns:xlink="http://www.w3.org/1999/xlink"
	 x="0px" y="0px" viewBox="0 0 144.8 52.5" xml:space="preserve">
<g>
	<g>
		<path fill="#FFFFFF" d="M5,12.9H2.6c-0.1,0-0.2-0.1-0.2-0.2v-0.2c0-0.1,0.1-0.2,0.2-0.2h5.4c0.1,0,0.2,0.1,0.2,0.2v0.2
			c0,0.1-0.1,0.2-0.2,0.2H5.5V21c0,0.1-0.1,0.2-0.2,0.2H5.1C5,21.2,5,21.1,5,21V12.9z"/>
		<path fill="#FFFFFF" d="M10.1,12.6c0-0.1,0.1-0.2,0.2-0.2h0.3c0.1,0,0.2,0.1,0.2,0.2v3.8h5.6v-3.8c0-0.1,0.1-0.2,0.2-0.2h0.3
			c0.1,0,0.2,0.1,0.2,0.2V21c0,0.1-0.1,0.2-0.2,0.2h-0.3c-0.1,0-0.2-0.1-0.2-0.2v-4.1h-5.6V21c0,0.1-0.1,0.2-0.2,0.2h-0.3
			c-0.1,0-0.2-0.1-0.2-0.2V12.6z"/>
		<path fill="#FFFFFF" d="M20.1,12.6c0-0.1,0.1-0.2,0.2-0.2h5c0.1,0,0.2,0.1,0.2,0.2v0.2c0,0.1-0.1,0.2-0.2,0.2h-4.6v3.5h4
			c0.1,0,0.2,0.1,0.2,0.2v0.2c0,0.1-0.1,0.2-0.2,0.2h-4v3.7h4.6c0.1,0,0.2,0.1,0.2,0.2V21c0,0.1-0.1,0.2-0.2,0.2h-5
			c-0.1,0-0.2-0.1-0.2-0.2V12.6z"/>
		<path fill="#FFFFFF" d="M34.5,3.9c0-0.2,0.2-0.4,0.4-0.4h0.4c0.1,0,0.4,0.1,0.4,0.3L41,16.5h0.1l5.2-12.7c0-0.1,0.2-0.3,0.4-0.3
			h0.4c0.2,0,0.4,0.2,0.4,0.4l3.1,16.7c0.1,0.3-0.1,0.6-0.4,0.6h-1.6c-0.2,0-0.4-0.2-0.5-0.3L46.2,9.7c0,0-0.1,0-0.1,0l-4.5,11.4
			c0,0.1-0.2,0.3-0.4,0.3h-0.4c-0.2,0-0.4-0.1-0.4-0.3L35.9,9.7c0,0-0.1,0-0.1,0L34,20.8c0,0.2-0.2,0.3-0.4,0.3h-1.6
			c-0.3,0-0.5-0.2-0.5-0.6L34.5,3.9z"/>
		<path fill="#FFFFFF" d="M54.8,4.2c0-0.2,0.2-0.5,0.5-0.5h1.7c0.3,0,0.5,0.2,0.5,0.5v10.3c0,2.5,1.6,4.4,4.1,4.4
			c2.6,0,4.2-1.9,4.2-4.4V4.2c0-0.2,0.2-0.5,0.5-0.5h1.7c0.2,0,0.5,0.2,0.5,0.5v10.5c0,3.8-2.9,6.7-6.8,6.7c-3.9,0-6.7-3-6.7-6.7
			V4.2z"/>
		<path fill="#FFFFFF" d="M72.7,18.6c0.2-0.3,0.4-0.7,0.6-1c0.2-0.3,0.6-0.4,0.8-0.2c0.1,0.1,2.1,1.7,4,1.7c1.7,0,2.8-1,2.8-2.3
			c0-1.5-1.3-2.4-3.8-3.5c-2.5-1.1-4.5-2.4-4.5-5.3c0-1.9,1.5-4.6,5.5-4.6c2.5,0,4.4,1.3,4.6,1.5c0.2,0.1,0.4,0.5,0.1,0.8
			c-0.2,0.3-0.4,0.6-0.6,0.9c-0.2,0.3-0.5,0.5-0.9,0.2c-0.2-0.1-1.9-1.2-3.4-1.2c-2.1,0-2.8,1.3-2.8,2.2c0,1.4,1.1,2.3,3.2,3.1
			c2.9,1.2,5.4,2.5,5.4,5.6c0,2.6-2.3,4.7-5.5,4.7c-3,0-5-1.6-5.4-2C72.6,19.2,72.5,19.1,72.7,18.6z"/>
		<path fill="#FFFFFF" d="M88.2,4.2c0-0.2,0.2-0.5,0.5-0.5h10c0.3,0,0.5,0.2,0.5,0.5v1.4c0,0.2-0.2,0.5-0.5,0.5h-7.9v5.1h6.6
			c0.2,0,0.5,0.2,0.5,0.5V13c0,0.3-0.2,0.5-0.5,0.5h-6.6v5.4h7.9c0.3,0,0.5,0.2,0.5,0.5v1.4c0,0.2-0.2,0.5-0.5,0.5h-10
			c-0.3,0-0.5-0.2-0.5-0.5V4.2z"/>
		<path fill="#FFFFFF" d="M103.2,4.2c0-0.2,0.2-0.5,0.5-0.5h1.7c0.3,0,0.5,0.2,0.5,0.5v10.3c0,2.5,1.6,4.4,4.1,4.4
			c2.6,0,4.2-1.9,4.2-4.4V4.2c0-0.2,0.2-0.5,0.5-0.5h1.7c0.2,0,0.5,0.2,0.5,0.5v10.5c0,3.8-2.9,6.7-6.8,6.7c-3.9,0-6.7-3-6.7-6.7
			V4.2z"/>
		<path fill="#FFFFFF" d="M123.9,3.9c0-0.2,0.2-0.4,0.4-0.4h0.4c0.1,0,0.4,0.1,0.4,0.3l5.2,12.7h0.1l5.2-12.7c0-0.1,0.2-0.3,0.4-0.3
			h0.4c0.2,0,0.4,0.2,0.4,0.4l3.1,16.7c0.1,0.3-0.1,0.6-0.4,0.6h-1.6c-0.2,0-0.4-0.2-0.5-0.3l-1.8-11.1c0,0-0.1,0-0.1,0l-4.5,11.4
			c-0.1,0.1-0.2,0.3-0.4,0.3h-0.4c-0.2,0-0.4-0.1-0.4-0.3l-4.5-11.4c0,0-0.1,0-0.1,0l-1.8,11.1c0,0.2-0.2,0.3-0.4,0.3h-1.6
			c-0.3,0-0.5-0.2-0.5-0.6L123.9,3.9z"/>
		<path fill="#FFFFFF" d="M5.2,25.4c2.5,0,4.5,2,4.5,4.5c0,2.5-2,4.5-4.5,4.5c-2.5,0-4.5-2-4.5-4.5C0.7,27.4,2.7,25.4,5.2,25.4z
			 M5.2,33.9c2.2,0,4-1.8,4-3.9s-1.8-4-4-4s-4,1.8-4,4S3,33.9,5.2,33.9z"/>
		<path fill="#FFFFFF" d="M12.3,25.7c0-0.1,0.1-0.2,0.2-0.2h5c0.1,0,0.2,0.1,0.2,0.2v0.2c0,0.1-0.1,0.2-0.2,0.2h-4.6v3.8h4
			c0.1,0,0.2,0.1,0.2,0.2c0,0.1,0,0.4-0.2,0.4h-4l0,3.7c0,0.1-0.1,0.2-0.2,0.2h-0.2c-0.1,0-0.2-0.1-0.2-0.2V25.7z"/>
		<path fill="#FFFFFF" d="M24.8,26.1h-2.4c-0.1,0-0.2-0.1-0.2-0.2v-0.2c0-0.1,0.1-0.2,0.2-0.2h5.4c0.1,0,0.2,0.1,0.2,0.2v0.2
			c0,0.1-0.1,0.2-0.2,0.2h-2.4v8.1c0,0.1-0.1,0.2-0.2,0.2h-0.2c-0.1,0-0.2-0.1-0.2-0.2V26.1z"/>
		<path fill="#FFFFFF" d="M29.9,25.7c0-0.1,0.1-0.2,0.2-0.2h0.3c0.1,0,0.2,0.1,0.2,0.2v3.8h5.6v-3.8c0-0.1,0.1-0.2,0.2-0.2h0.3
			c0.1,0,0.2,0.1,0.2,0.2v8.4c0,0.1-0.1,0.2-0.2,0.2h-0.3c-0.1,0-0.2-0.1-0.2-0.2v-4.1h-5.6v4.1c0,0.1-0.1,0.2-0.2,0.2h-0.3
			c-0.1,0-0.2-0.1-0.2-0.2V25.7z"/>
		<path fill="#FFFFFF" d="M39.9,25.7c0-0.1,0.1-0.2,0.2-0.2h5c0.1,0,0.2,0.1,0.2,0.2v0.2c0,0.1-0.1,0.2-0.2,0.2h-4.6v3.5h4
			c0.1,0,0.2,0.1,0.2,0.2v0.2c0,0.1-0.1,0.2-0.2,0.2h-4v3.7h4.6c0.1,0,0.2,0.1,0.2,0.2v0.2c0,0.1-0.1,0.2-0.2,0.2h-5
			c-0.1,0-0.2-0.1-0.2-0.2V25.7z"/>
		<path fill="#FFFFFF" d="M50.8,26.2c-0.1-0.3,0.1-0.6,0.4-0.6H53c0.2,0,0.4,0.2,0.4,0.3l3,11.4h0.1l4.1-11.7c0-0.1,0.2-0.3,0.4-0.3
			h0.4c0.2,0,0.4,0.1,0.4,0.3L66,37.3h0.1l3-11.4c0-0.2,0.2-0.3,0.4-0.3h1.7c0.3,0,0.5,0.2,0.4,0.6l-4.7,16.7c0,0.2-0.2,0.3-0.4,0.3
			h-0.4c-0.2,0-0.4-0.1-0.4-0.3l-4.4-12.4h-0.1L56.8,43c0,0.2-0.2,0.3-0.4,0.3H56c-0.2,0-0.4-0.1-0.4-0.3L50.8,26.2z"/>
		<path fill="#FFFFFF" d="M83.1,25.3c5,0,9,4,9,9s-4,8.9-9,8.9c-5,0-8.9-4-8.9-8.9S78.1,25.3,83.1,25.3z M83.1,40.8
			c3.6,0,6.5-2.9,6.5-6.4c0-3.5-2.9-6.5-6.5-6.5c-3.5,0-6.4,3-6.4,6.5C76.7,37.9,79.6,40.8,83.1,40.8z"/>
		<path fill="#FFFFFF" d="M96.6,26c0-0.2,0.2-0.5,0.5-0.5h6.8c3,0,5.4,2.4,5.4,5.3c0,2.3-1.5,4.2-3.7,5.1l3.4,6.3
			c0.2,0.3,0,0.7-0.4,0.7h-1.9c-0.2,0-0.3-0.1-0.4-0.2l-3.3-6.6h-3.8v6.3c0,0.2-0.2,0.5-0.5,0.5h-1.6c-0.3,0-0.5-0.2-0.5-0.5V26z
			 M103.7,34c1.6,0,3-1.4,3-3.1c0-1.6-1.4-3-3-3h-4.4v6H103.7z"/>
		<path fill="#FFFFFF" d="M114.1,26c0-0.2,0.2-0.5,0.5-0.5h1.6c0.2,0,0.5,0.2,0.5,0.5v14.6h6.7c0.3,0,0.5,0.2,0.5,0.5v1.4
			c0,0.2-0.2,0.5-0.5,0.5h-8.9c-0.3,0-0.5-0.2-0.5-0.5V26z"/>
		<path fill="#FFFFFF" d="M127.5,26c0-0.2,0.2-0.5,0.4-0.5h5.7c4.8,0,8.7,3.9,8.7,8.7c0,4.8-3.9,8.7-8.7,8.7h-5.7
			c-0.2,0-0.4-0.2-0.4-0.5V26z M133.3,40.6c3.7,0,6.3-2.7,6.3-6.4c0-3.7-2.7-6.3-6.3-6.3H130v12.7H133.3z"/>
	</g>
	<line fill="none" stroke="#FFFFFF" stroke-miterlimit="10" x1="1.4" y1="38.1" x2="51.4" y2="38.1"/>
	<line fill="none" stroke="#FFFFFF" stroke-miterlimit="10" x1="1.4" y1="9.1" x2="31.4" y2="9.1"/>
</g>
</svg>
