<?xml version="1.0" encoding="utf-8"?>
<!-- Generator: Adobe Illustrator 18.0.0, SVG Export Plug-In . SVG Version: 6.00 Build 0)  -->
<!DOCTYPE svg PUBLIC "-//W3C//DTD SVG 1.1//EN" "http://www.w3.org/Graphics/SVG/1.1/DTD/svg11.dtd">
<svg version="1.1" id="Layer_1" xmlns="http://www.w3.org/2000/svg" xmlns:xlink="http://www.w3.org/1999/xlink" x="0px" y="0px"
	 viewBox="0 0 15.2 15.2" enable-background="new 0 0 15.2 15.2" xml:space="preserve">
<g id="_x34_jVirf_1_">
	<g>
		<g>
			<path fill="#FFFFFF" d="M6.1,7c0,0.8,0,1.5,0,2.3c0,0,0,0,0.1,0c0.6,0,1.2,0,1.9,0c0.1,0,0.1,0,0.1,0.1c0,1.9,0,3.8,0,5.8
				c0,0.1,0,0.1-0.1,0.1c-2.4,0-4.8,0-7.2,0c-0.4,0-0.8-0.3-0.8-0.7c0-0.1,0-0.1,0-0.2c0-3,0-5.9,0-8.9c0-1.5,0-3.1,0-4.6
				c0-0.2,0.1-0.4,0.2-0.6C0.4,0.1,0.6,0,0.8,0c0,0,0.1,0,0.1,0c4.5,0,9,0,13.4,0c0.2,0,0.4,0,0.5,0.1c0.2,0.2,0.4,0.4,0.4,0.7
				c0,0,0,0,0,0c0,4.5,0,9,0,13.4c0,0.2,0,0.4-0.1,0.5c-0.2,0.2-0.4,0.4-0.7,0.4c-1.1,0-2.1,0-3.2,0c-0.2,0-0.4,0-0.6,0
				c-0.1,0-0.1,0-0.1-0.1c0-0.9,0-1.9,0-2.8c0-1,0-1.9,0-2.9c0-0.1,0-0.1,0.1-0.1c0.6,0,1.2,0,1.8,0c0,0,0,0,0,0c0,0,0,0,0,0
				c0-0.2,0.1-0.5,0.1-0.7c0-0.2,0.1-0.5,0.1-0.7c0-0.2,0.1-0.5,0.1-0.7c0,0,0-0.1,0-0.1c0,0,0,0-0.1,0c-0.7,0-1.4,0-2.2,0
				c-0.1,0-0.1,0-0.1-0.1c0-0.5,0-1,0-1.6c0-0.1,0-0.3,0.1-0.4c0.1-0.3,0.3-0.4,0.5-0.5c0.2-0.1,0.4-0.1,0.5-0.1c0.4,0,0.8,0,1.1,0
				c0,0,0,0,0.1,0c0-0.7,0-1.4,0-2.1c-0.1,0-0.1,0-0.2,0c-0.2,0-0.5,0-0.7,0c-0.3,0-0.7,0-1,0c-0.5,0-1.1,0.1-1.5,0.4
				C8.9,3,8.5,3.5,8.3,4.1C8.2,4.3,8.2,4.6,8.1,4.8c0,0.2,0,0.4,0,0.6c0,0.5,0,1,0,1.6C8.1,7,8.1,7,8.1,7C7.4,7,6.8,7,6.1,7
				C6.2,7,6.2,7,6.1,7z"/>
		</g>
	</g>
</g>
</svg>
