<?xml version="1.0" encoding="utf-8"?>
<!-- Generator: Adobe Illustrator 18.0.0, SVG Export Plug-In . SVG Version: 6.00 Build 0)  -->
<!DOCTYPE svg PUBLIC "-//W3C//DTD SVG 1.1//EN" "http://www.w3.org/Graphics/SVG/1.1/DTD/svg11.dtd">
<svg version="1.1" id="Layer_1" xmlns="http://www.w3.org/2000/svg" xmlns:xlink="http://www.w3.org/1999/xlink" x="0px" y="0px"
	 viewBox="0 0 21.3 23.6" enable-background="new 0 0 21.3 23.6" xml:space="preserve">
<path fill="#FFFFFF" d="M17.3,15.8c-1.2,0-2.2,0.5-2.9,1.3l-6.8-4c0.1-0.4,0.2-0.8,0.2-1.3c0-0.4-0.1-0.9-0.2-1.3l6.8-4
	c0.7,0.8,1.8,1.3,2.9,1.3c2.2,0,3.9-1.8,3.9-3.9c0-2.2-1.8-3.9-3.9-3.9s-3.9,1.8-3.9,3.9c0,0.4,0.1,0.9,0.2,1.3l-6.8,4
	C6.1,8.4,5.1,7.9,3.9,7.9C1.8,7.9,0,9.6,0,11.8c0,2.2,1.8,3.9,3.9,3.9c1.2,0,2.2-0.5,2.9-1.3l6.8,4c-0.1,0.4-0.2,0.8-0.2,1.3
	c0,2.2,1.8,3.9,3.9,3.9s3.9-1.8,3.9-3.9C21.3,17.5,19.5,15.8,17.3,15.8z"/>
</svg>
