<?xml version="1.0" encoding="utf-8"?>
<!-- Generator: Adobe Illustrator 18.0.0, SVG Export Plug-In . SVG Version: 6.00 Build 0)  -->
<!DOCTYPE svg PUBLIC "-//W3C//DTD SVG 1.1//EN" "http://www.w3.org/Graphics/SVG/1.1/DTD/svg11.dtd">
<svg version="1.1" id="Layer_1" xmlns="http://www.w3.org/2000/svg" xmlns:xlink="http://www.w3.org/1999/xlink" x="0px" y="0px"
	 viewBox="0 0 18.6 15.2" enable-background="new 0 0 18.6 15.2" xml:space="preserve">
<g id="IUrcmR_1_">
	<g>
		<g>
			<path fill="#FFFFFF" d="M9.1,4.7C9,3.8,9.1,2.9,9.5,2c0.4-0.7,0.9-1.2,1.6-1.6c1.4-0.7,3.3-0.5,4.5,0.8c0,0,0.1,0,0.1,0
				C16.6,1,17.3,0.7,18,0.4c0,0,0.1,0,0.1-0.1c0,0,0,0,0,0c-0.1,0.2-0.2,0.4-0.3,0.6c-0.1,0.2-0.2,0.4-0.4,0.6
				C17.3,1.7,17.2,1.8,17,2c-0.2,0.1-0.3,0.3-0.5,0.4c0.4,0,0.7-0.1,1.1-0.2c0.3-0.1,0.7-0.2,1-0.4c-0.1,0.2-0.5,0.7-0.9,1.1
				c-0.3,0.3-0.7,0.6-1,0.9c0,0.1,0,0.1,0,0.2c0,0.4,0,0.8,0,1.2c-0.1,0.6-0.2,1.2-0.3,1.9c-0.4,1.6-1.2,3.1-2.3,4.4
				c-1.5,1.8-3.4,3-5.7,3.5c-0.6,0.1-1.2,0.2-1.9,0.3c-0.4,0-0.8,0-1.2,0c-1.3-0.1-2.5-0.3-3.7-0.8c-0.5-0.2-1.1-0.5-1.5-0.8
				c0,0-0.1,0-0.1-0.1c0,0,0,0,0,0c1.3,0.1,2.6,0,3.9-0.6c0.6-0.3,1.4-0.7,1.7-1c0,0,0,0-0.1,0c-0.2,0-0.4,0-0.6-0.1
				c-1.2-0.2-2.3-1-2.8-2.3c0-0.1-0.1-0.2-0.1-0.3c0.2,0,0.4,0,0.6,0.1c0.2,0,0.4,0,0.6,0c0.2,0,0.4-0.1,0.6-0.1c0,0-0.1,0-0.1,0
				c-1.1-0.3-1.9-0.9-2.5-2C0.9,6.6,0.7,6.1,0.7,5.5c0,0,0-0.1,0-0.1c0.2,0.1,0.4,0.2,0.5,0.2c0.2,0.1,0.4,0.1,0.5,0.2
				c0.2,0,0.4,0.1,0.6,0.1C2.3,5.7,2.2,5.7,2.2,5.6C2.1,5.6,2,5.5,2,5.5C1.9,5.4,1.9,5.4,1.8,5.3C1.7,5.2,1.7,5.2,1.6,5.1
				C1.6,5,1.5,5,1.5,4.9C1.4,4.8,1.4,4.7,1.3,4.7c0-0.1-0.1-0.1-0.1-0.2c0-0.1-0.1-0.2-0.1-0.2C1,4.1,1,4.1,1,4
				c0-0.1-0.1-0.2-0.1-0.2c0-0.1,0-0.2-0.1-0.3c0-0.1,0-0.2,0-0.2c0-0.1,0-0.2,0-0.3c0-0.1,0-0.2,0-0.3c0-0.1,0-0.2,0-0.3
				c0-0.1,0-0.2,0-0.2c0-0.1,0-0.2,0-0.3c0-0.1,0-0.2,0.1-0.3c0-0.1,0-0.2,0.1-0.3C0.9,1.4,1,1.3,1,1.2C1,1.1,1.1,1,1.1,1
				c0-0.1,0.1-0.2,0.1-0.2c0.1,0,0.1,0.1,0.1,0.1c0.3,0.4,0.6,0.7,1,1c1.5,1.3,3.1,2.2,5.1,2.6c0.5,0.1,1,0.2,1.5,0.2
				C9,4.7,9,4.7,9.1,4.7C9.1,4.7,9.1,4.7,9.1,4.7z"/>
		</g>
	</g>
</g>
</svg>
