<?xml version="1.0" encoding="utf-8"?>
<!-- Generator: Adobe Illustrator 18.0.0, SVG Export Plug-In . SVG Version: 6.00 Build 0)  -->
<!DOCTYPE svg PUBLIC "-//W3C//DTD SVG 1.1//EN" "http://www.w3.org/Graphics/SVG/1.1/DTD/svg11.dtd">
<svg version="1.1" id="Layer_1" xmlns="http://www.w3.org/2000/svg" xmlns:xlink="http://www.w3.org/1999/xlink" x="0px" y="0px"
	 viewBox="0 0 23.8 15.2" enable-background="new 0 0 23.8 15.2" xml:space="preserve">
<g id="z9v1iz_1_">
	<g>
		<g>
			<path fill="#FFFFFF" d="M1.6,0C5,3,8.4,6,11.8,8.9c3.4-3,6.9-6,10.3-8.9C15.3,0,8.5,0,1.6,0z M8.9,8.7C6.4,10.9,4,13,1.6,15.2
				c7,0,13.9,0,20.8,0c-2.6-2.2-5.1-4.3-7.7-6.5c-1,0.8-1.9,1.7-2.9,2.5C10.9,10.4,9.9,9.5,8.9,8.7z M23.8,14.4c0-4.5,0-9,0-13.6
				c-2.6,2.3-5.2,4.5-7.8,6.8C18.6,9.9,21.2,12.2,23.8,14.4z M0,14.4c2.5-2.3,5-4.5,7.5-6.8C5,5.4,2.5,3.1,0,0.9C0,5.4,0,9.9,0,14.4
				z"/>
		</g>
	</g>
</g>
</svg>
