<?xml version="1.0" encoding="utf-8"?>
<!-- Generator: Adobe Illustrator 18.0.0, SVG Export Plug-In . SVG Version: 6.00 Build 0)  -->
<svg version="1.2" baseProfile="tiny" id="Layer_1" xmlns="http://www.w3.org/2000/svg" xmlns:xlink="http://www.w3.org/1999/xlink"
	 x="0px" y="0px" viewBox="0 0 24.6 15.6" xml:space="preserve">
<g>
	<path fill="#FFFFFF" d="M0,7.4c0.1-4,3.8-7.5,7.8-7.4c1.9-0.1,3.7,0.7,5.2,1.9c-0.6,0.7-1.3,1.4-2,2.1C9.3,2.8,6.7,2.4,5,3.8
		c-2.5,1.8-2.7,5.9-0.2,7.8c2.4,2.2,6.9,1.1,7.5-2.2c-1.5,0-3,0-4.5,0c0-0.9,0-1.8,0-2.7c2.5,0,5,0,7.5,0c0.1,2.1-0.1,4.3-1.4,6
		C11.9,15.5,8,16.3,5,15.1C1.9,13.9-0.2,10.7,0,7.4z"/>
	<path fill="#FFFFFF" d="M20.1,4.5c0.7,0,1.5,0,2.2,0c0,0.7,0,1.5,0,2.2c0.7,0,1.5,0,2.2,0c0,0.7,0,1.5,0,2.2c-0.7,0-1.5,0-2.2,0
		c0,0.7,0,1.5,0,2.2c-0.7,0-1.5,0-2.2,0c0-0.7,0-1.5,0-2.2c-0.7,0-1.5,0-2.2,0c0-0.7,0-1.5,0-2.2c0.7,0,1.5,0,2.2,0
		C20.1,5.9,20.1,5.2,20.1,4.5z"/>
</g>
</svg>
