<?xml version="1.0" encoding="utf-8"?>
<!-- Generator: Adobe Illustrator 18.0.0, SVG Export Plug-In . SVG Version: 6.00 Build 0)  -->
<svg version="1.2" baseProfile="tiny" id="Layer_1" xmlns="http://www.w3.org/2000/svg" xmlns:xlink="http://www.w3.org/1999/xlink"
	 x="0px" y="0px" viewBox="0 0 106.5 34.7" xml:space="preserve">
<g>
	<path fill="#FFFFFF" d="M106.5,34.4c-1.6,0-3.2,0-4.7,0c0,0,0,0-0.1,0c0-0.2,0-0.4,0-0.6c0.2,0,0.4,0,0.6,0c0.7,0,0.9-0.3,1-1
		c0-0.3,0-0.5,0-0.8c0-1.4,0-2.9,0-4.3c0-0.3-0.1-0.7-0.2-1c-0.2-0.7-0.7-1.1-1.5-1.2c-1-0.1-1.8,0.3-2.5,1
		c-0.1,0.1-0.1,0.1-0.2,0.2c-0.5,0.5-0.7,1-0.7,1.8c0.1,1.4,0,2.7,0,4.1c0,0.1,0,0.3,0,0.4c0.1,0.6,0.3,0.8,0.9,0.9
		c0.2,0,0.3,0,0.5,0c0,0.2,0,0.4,0,0.6c-1.6,0-3.2,0-4.7,0c0-0.2,0-0.4,0-0.6c0.2,0,0.4,0,0.5,0c0.6,0,0.9-0.2,0.9-0.8
		c0-0.3,0.1-0.5,0.1-0.8c0-1.4,0-2.8,0-4.2c0-0.4,0-0.7-0.1-1.1c-0.2-0.8-0.8-1.3-1.6-1.3c-0.9,0-1.6,0.3-2.3,0.9
		c-0.1,0.1-0.2,0.2-0.3,0.3c-0.5,0.5-0.7,1-0.7,1.7c0.1,1.3,0,2.5,0,3.8c0,0.3,0,0.6,0.1,0.9c0.1,0.5,0.3,0.7,0.8,0.8
		c0.2,0,0.4,0,0.6,0c0,0.2,0,0.4,0,0.6c-1.6,0-3.1,0-4.7,0c0-0.2,0-0.4,0-0.6c0.2,0,0.4,0,0.5,0c0.6,0,0.9-0.3,0.9-0.9
		c0-0.3,0-0.6,0.1-0.9c0-1.6,0-3.1,0-4.7c0-0.3,0-0.5-0.1-0.8c-0.1-0.5-0.3-0.6-0.8-0.7c-0.2,0-0.4,0-0.7,0c0-0.2,0-0.4,0-0.6
		c0.4-0.1,0.9-0.2,1.3-0.3c0.4-0.1,0.7-0.2,1.1-0.3c0.4-0.1,0.5-0.1,0.6,0.3c0.1,0.5,0.2,1,0.2,1.5c0.2-0.2,0.4-0.4,0.7-0.6
		c0.7-0.6,1.5-1.1,2.4-1.2c0.9-0.1,1.8,0,2.5,0.5c0.5,0.4,0.8,0.8,0.9,1.4c0.2-0.1,0.3-0.3,0.5-0.4c0.7-0.7,1.5-1.3,2.4-1.5
		c0.7-0.1,1.3-0.1,2,0c1,0.3,1.6,1,1.8,2c0.1,0.3,0.1,0.6,0.1,0.9c0,1.6,0,3.2,0,4.8c0,0.3,0.1,0.5,0.1,0.8c0.1,0.3,0.3,0.5,0.6,0.5
		c0.3,0,0.6,0,0.9,0C106.5,33.9,106.5,34.2,106.5,34.4z"/>
	<path fill="#FFFFFF" d="M77.7,0c0,0.9,0,1.9,0,2.8c0,1.6,0,3.2,0,4.8c0,0.1,0,0.2,0,0.3c0.4-0.3,0.7-0.7,1-1c1-0.9,2.2-1.1,3.5-0.8
		c1.1,0.3,1.8,1.1,2,2.2c0,0.3,0.1,0.6,0.1,0.9c0,1.5,0,3.1,0,4.6c0,0.2,0,0.4,0.1,0.6c0.1,0.5,0.3,0.7,0.8,0.8c0.2,0,0.4,0,0.7,0
		c0,0.2,0,0.4,0,0.6c-1.6,0-3.2,0-4.9,0c0-0.2,0-0.4,0-0.6c0.2,0,0.4,0,0.7,0c0.6,0,0.8-0.2,0.9-0.8c0.1-0.3,0.1-0.7,0.1-1.1
		c0-1.3,0-2.5,0-3.8c0-0.4,0-0.8-0.1-1.2C82.2,7.1,81.2,6.5,80,7c-0.7,0.2-1.2,0.7-1.7,1.2c-0.6,0.7-0.6,0.7-0.6,1.6
		c0,1.3,0,2.6,0,3.9c0,0.3,0,0.6,0.1,0.8c0.1,0.5,0.3,0.6,0.8,0.7c0.2,0,0.4,0,0.6,0c0,0.2,0,0.4,0,0.6c-1.6,0-3.2,0-4.8,0
		c0-0.2,0-0.4,0-0.6c0.2,0,0.4,0,0.6,0c0.7,0,0.9-0.3,1-0.9c0-0.4,0-0.8,0-1.2c0-3.4,0-6.7,0-10.1c0-0.3,0-0.6,0-0.9
		c-0.1-0.6-0.3-0.9-1-1c-0.2,0-0.4,0-0.5-0.1c0-0.2,0-0.4,0-0.6c0.6-0.1,1.2-0.1,1.8-0.2c0.4-0.1,0.8-0.2,1.2-0.3
		C77.5,0,77.6,0,77.7,0z"/>
	<path fill="#FFFFFF" d="M50.6,34.7c-0.2,0-0.4-0.1-0.6-0.2c-1-0.3-1.5-1.1-1.6-2.1c-0.1-0.3-0.1-0.6-0.1-0.9c0-1.6,0-3.2,0-4.7
		c0-0.2,0-0.5-0.1-0.7c-0.1-0.3-0.3-0.5-0.6-0.6c-0.3,0-0.5,0-0.8-0.1c0-0.2,0-0.4,0-0.6c1.1,0,2.1,0,3.2,0c0,0.1,0,0.2,0,0.3
		c0,2.1,0,4.3,0,6.4c0,0.3,0,0.6,0.1,0.9c0.1,0.8,0.7,1.2,1.4,1.3c1.6,0.1,3-1.1,3.3-2.6c0-0.2,0.1-0.5,0.1-0.7c0-1.1,0-2.3,0-3.4
		c0-0.3,0-0.6-0.1-0.8c-0.1-0.3-0.3-0.5-0.6-0.6c-0.3,0-0.6,0-0.9-0.1c0-0.2,0-0.4,0-0.6c1.1,0,2.2,0,3.3,0c0,0.1,0,0.2,0,0.3
		c0,2.3,0,4.6,0,6.9c0,0.3,0,0.6,0.1,0.9c0.1,0.5,0.3,0.7,0.8,0.8c0.2,0,0.3,0,0.5,0c0,0.2,0,0.4,0,0.6c-0.5,0-0.9,0-1.3,0.1
		c-0.3,0.1-0.7,0.2-1,0.3c-0.1,0-0.2,0-0.3,0c-0.4-0.6-0.4-1.3-0.4-2.1c-0.4,0.6-0.9,1.1-1.5,1.5c-0.5,0.3-1,0.4-1.5,0.6
		C51.4,34.7,51,34.7,50.6,34.7z"/>
	<path fill="#FFFFFF" d="M80.2,34.7c-0.2,0-0.4-0.1-0.5-0.2c-0.9-0.3-1.4-1-1.6-2c-0.1-0.3-0.1-0.7-0.1-1c0-1.5,0-3.1,0-4.6
		c0-0.3,0-0.5-0.1-0.8c-0.1-0.4-0.3-0.6-0.7-0.6c-0.3,0-0.5,0-0.8-0.1c0-0.2,0-0.4,0-0.6c1.1,0,2.1,0.1,3.2,0.1c0,0.1,0,0.2,0,0.3
		c0,2.1,0,4.3,0,6.4c0,0.3,0,0.6,0.1,0.8c0.2,0.8,0.7,1.2,1.5,1.2c1.6,0.1,3.1-1.2,3.3-2.8c0.1-0.6,0-1.1,0-1.7c0-0.9,0-1.8,0-2.7
		c0-0.1,0-0.1,0-0.2c-0.1-0.7-0.3-0.9-0.9-0.9c-0.2,0-0.4,0-0.6,0c0-0.2,0-0.4,0-0.6c1.1,0,2.2,0,3.3,0c0,0.1,0,0.2,0,0.3
		c0,2.4,0,4.7,0,7.1c0,0.2,0,0.4,0,0.6c0.1,0.6,0.3,0.8,0.9,0.8c0.1,0,0.3,0,0.5,0c0,0.2,0,0.4,0,0.6c-0.3,0-0.6,0-0.9,0.1
		c-0.5,0-1,0.1-1.5,0.3c-0.1,0-0.2,0-0.3,0c-0.3-0.7-0.4-1.4-0.4-2.2c-0.1,0.1-0.1,0.2-0.2,0.2c-0.3,0.5-0.8,0.9-1.3,1.3
		c-0.5,0.3-1,0.5-1.6,0.7C81,34.7,80.6,34.7,80.2,34.7z"/>
	<path fill="#FFFFFF" d="M71.2,34.7c-0.4-0.1-0.7-0.2-1.1-0.3c-1.7-0.7-2.7-2-2.9-3.9c-0.2-1.5,0.1-2.8,0.9-4.1
		c1.3-1.9,3.8-2.5,5.7-1.4c1.1,0.6,1.9,2,1.8,3.1c-0.1,0-0.2,0-0.3,0c-2,0-4,0-6,0c-0.2,0-0.3,0.1-0.3,0.3c0,1.1,0,2.2,0.3,3.3
		c0.2,0.6,0.5,1.2,1,1.7c0.8,0.7,1.8,0.7,2.8,0.5c0.8-0.2,1.4-0.7,1.8-1.5c0.1-0.2,0.3-0.3,0.5-0.3c0.1,0,0.1,0,0.2,0
		c0,0.1-0.1,0.2-0.1,0.3c-0.6,1.2-1.6,1.9-2.9,2.2c-0.1,0-0.1,0-0.2,0C72.1,34.7,71.7,34.7,71.2,34.7z M73.7,27.7c0-0.2,0-0.5,0-0.7
		c0-0.9-0.6-1.6-1.4-1.8c-0.3-0.1-0.7-0.1-1.1-0.1c-1.1,0.1-2.1,1.4-2,2.5C70.7,27.7,72.2,27.7,73.7,27.7z"/>
	<path fill="#FFFFFF" d="M0,7c0-0.4,0-0.9,0-1.3c3.4,0,6.6,0,10,0c0,0.8,0,1.7,0,2.5c-0.1,0-0.3,0-0.4,0C9.5,7.9,9.4,7.6,9.3,7.3
		c-0.3-0.7-0.6-1-1.4-1c-0.7,0-1.3,0-2,0c0,0,0,0-0.1,0c0,0,0,0.1,0,0.1c0,2.6,0,5.2,0,7.8c0,0.1,0,0.2,0,0.3
		c0.1,0.6,0.3,0.8,0.9,0.8c0.3,0,0.6,0,0.8,0c0,0.2,0,0.4,0,0.5c-1.7,0-3.4,0-5.1,0c0-0.2,0-0.3,0-0.5c0.2,0,0.4,0,0.6,0
		c0.9,0,1.2-0.2,1.2-1.1c0-2.6,0-5.2,0-7.8c0,0,0-0.1,0-0.2c-0.2,0-0.4,0-0.6,0c-0.5,0-1,0-1.6,0c-0.6,0-1,0.3-1.2,0.9
		C0.7,7.5,0.6,7.9,0.5,8.3c-0.2,0-0.3,0-0.5,0C0,7.8,0,7.4,0,7z"/>
	<path fill="#FFFFFF" d="M62,34.7c-0.3-0.1-0.6-0.2-0.9-0.4c-0.3-0.2-0.5-0.4-0.8-0.6c-0.1,0.2-0.2,0.4-0.3,0.6
		c-0.2,0.3-0.2,0.4-0.6,0.3c0-1,0-2,0-3.1c0,0,0,0,0,0c0.4,0,0.4,0,0.5,0.4c0.3,0.8,0.7,1.6,1.5,2c0.5,0.2,1.1,0.3,1.6,0.2
		c1.1-0.3,1.6-1.6,0.9-2.5c-0.2-0.3-0.5-0.5-0.9-0.7c-0.6-0.3-1.2-0.6-1.8-1c-0.6-0.3-1.1-0.7-1.5-1.2c-0.7-0.9-0.7-2.3,0-3.2
		c0.5-0.7,1.3-0.9,2.2-0.9c0.7,0,1.4,0.3,1.9,0.9c0,0,0.1,0,0.1,0.1c0.1-0.2,0.2-0.4,0.3-0.5c0.2-0.3,0.2-0.3,0.5-0.3
		c0,1,0,1.9,0,2.9c-0.1,0-0.1,0-0.2,0c-0.2,0-0.3,0-0.3-0.2c-0.2-0.7-0.5-1.3-1-1.7c-0.5-0.5-1.1-0.6-1.8-0.4
		c-0.9,0.2-1.3,1.2-0.8,2c0.2,0.4,0.6,0.6,0.9,0.8c0.6,0.3,1.3,0.6,1.9,0.9c0.6,0.3,1.2,0.7,1.5,1.3c0.7,1.1,0.7,3.2-0.9,4.1
		c-0.3,0.1-0.6,0.2-0.9,0.3C62.8,34.7,62.4,34.7,62,34.7z"/>
	<path fill="#FFFFFF" d="M51.1,0c0.1,0.1,0.2,0.1,0.3,0.2C52,0.5,52.2,1.1,52,1.6c-0.2,0.5-0.7,0.9-1.2,0.8c-0.6-0.1-1-0.5-1.1-1.1
		c-0.1-0.6,0.2-1.1,0.8-1.3c0.1,0,0.1,0,0.2-0.1C50.8,0,51,0,51.1,0z"/>
	<path fill="#FFFFFF" d="M63.6,0c0.6,0.2,0.9,0.6,0.9,1.2c0,0.6-0.4,1.2-1,1.3c-0.6,0.1-1.2-0.3-1.4-0.9c-0.2-0.6,0.2-1.2,0.7-1.4
		C63,0.1,63.1,0,63.1,0C63.3,0,63.5,0,63.6,0z"/>
	<path fill="#FFFFFF" d="M42.2,20.7c-0.7,1.6-1.4,3.2-2.1,4.8c-1.3,2.9-2.6,5.8-3.9,8.7c-0.1,0.2-0.3,0.2-0.4,0.2
		c-0.2,0-0.2-0.1-0.3-0.2c-2-4.5-3.9-9-5.9-13.5c0-0.1-0.1-0.2-0.1-0.2c0,0.1,0,0.1,0,0.2c0,3.4,0,6.7,0,10.1c0,0.4,0,0.7,0.1,1.1
		c0.2,1.1,0.8,1.7,1.9,1.9c0.1,0,0.3,0,0.4,0.1c0,0.2,0,0.4,0,0.6c-1.8,0-3.7,0-5.6,0c0-0.2,0-0.3,0-0.5c0,0,0.1-0.1,0.1-0.1
		c0.2,0,0.4-0.1,0.5-0.1c0.9-0.2,1.4-0.7,1.6-1.5c0.1-0.4,0.2-0.9,0.2-1.3c0-3.1,0-6.3,0-9.4c0-0.4,0-0.8-0.1-1.2
		c-0.1-0.5-0.3-0.7-0.8-0.7c-0.4,0-0.7,0-1.1-0.1c-0.1,0-0.3,0-0.4,0c0-0.2,0-0.4,0-0.6c1.6,0,3.1,0,4.7,0c1.9,4.2,3.8,8.5,5.7,12.7
		c0.3-0.7,0.6-1.3,0.9-2c1.6-3.5,3.2-7.1,4.8-10.6c0-0.1,0.1-0.2,0.2-0.2c1.5,0,3,0,4.5,0c0,0,0.1,0,0.1,0c0,0.2,0,0.4,0,0.6
		c-0.4,0-0.7,0-1.1,0c-0.2,0-0.4,0-0.6,0c-0.5,0.1-0.8,0.3-0.9,0.8c-0.1,0.4-0.1,0.9-0.1,1.3c0,3.4,0,6.8,0,10.2
		c0,0.3,0,0.5,0.1,0.8c0.1,0.9,0.5,1.2,1.4,1.2c0.3,0,0.7,0,1,0c0.1,0,0.1,0,0.2,0c0,0.2,0,0.4,0,0.6c-2.5,0-5,0-7.5,0
		c0-0.2,0-0.4,0-0.6c0.3,0,0.5,0,0.7,0c0.3,0,0.6,0,0.8-0.1c0.4-0.1,0.6-0.3,0.7-0.7c0.1-0.4,0.2-0.8,0.2-1.2c0-2.3,0-4.6,0-6.8
		c0-1.3,0-2.7,0-4C42.3,20.9,42.3,20.8,42.2,20.7C42.3,20.7,42.2,20.7,42.2,20.7z"/>
	<path fill="#FFFFFF" d="M26.3,15.8c0-0.2,0-0.4,0-0.6c0.4,0,0.7,0,1.1,0c0.1,0,0.3,0,0.4-0.1c0.5-0.1,0.8-0.4,0.9-0.9
		c0.1-0.5,0.1-1,0.1-1.5c0-3.1,0-6.2,0-9.3c0-0.5,0-1.1-0.1-1.6c-0.1-0.6-0.4-0.9-1.1-1c-0.4,0-0.9,0-1.3,0c0-0.3,0-0.5,0-0.7
		c0.5,0,0.9,0,1.4-0.1c1.7,0,3.3-0.1,5-0.1c1.1,0,2.1,0.1,3.1,0.5c0.8,0.3,1.4,0.6,1.9,1.3c0.9,1.1,1,3.6-0.8,4.7
		c-0.8,0.5-1.6,0.7-2.5,0.9c0,0-0.1,0-0.1,0.1c0.3,0,0.6,0.1,0.9,0.1c0.9,0.2,1.8,0.4,2.6,1c1.1,0.8,1.5,1.9,1.4,3.2
		c-0.1,1.8-1.1,3.1-2.9,3.7c-0.9,0.3-1.9,0.4-2.8,0.4c-2.3,0-4.6,0-6.9,0C26.4,15.9,26.3,15.8,26.3,15.8z M31.1,7.8
		c0,0.1,0,0.1,0,0.2c0,1.5,0,3,0,4.4c0,0.6,0.1,1.2,0.2,1.9c0.1,0.6,0.4,0.8,1,0.9c0.6,0.1,1.2,0.1,1.8-0.1c1.4-0.2,2.2-1.1,2.5-2.5
		c0.1-0.7,0.1-1.5,0-2.2c-0.2-1.1-0.8-1.8-1.8-2.2c-0.7-0.3-1.4-0.4-2.1-0.4C32.2,7.8,31.6,7.8,31.1,7.8z M31.1,7.2
		c1,0,1.9,0,2.8-0.2c1-0.3,1.6-0.9,1.8-1.9c0.2-0.8,0.2-1.6,0-2.3c-0.2-1-0.8-1.6-1.8-1.8c-0.9-0.3-1.9-0.2-2.9-0.1
		C31.1,2.9,31.1,5,31.1,7.2z"/>
	<path fill="#FFFFFF" d="M72.9,9.1c-0.1,0-0.2,0-0.3,0c-0.2,0-0.2,0-0.3-0.2c-0.2-0.6-0.4-1.2-0.9-1.7c-0.5-0.5-1.1-0.7-1.8-0.6
		c-0.5,0.1-0.9,0.4-1.1,0.9c-0.2,0.5,0,1,0.4,1.4c0.4,0.4,0.9,0.7,1.4,0.9c0.6,0.3,1.2,0.5,1.7,0.9c1.2,0.8,1.7,2,1.4,3.4
		c-0.2,1.1-1.1,1.8-2.3,2c-1.1,0.1-2-0.1-2.8-0.9c0,0-0.1,0-0.1-0.1c-0.1,0.2-0.2,0.4-0.3,0.6c-0.2,0.3-0.1,0.3-0.6,0.3
		c0-1,0-2,0-3.1c0.1,0,0.3,0,0.4,0c0,0,0.1,0.1,0.1,0.2c0.2,0.6,0.4,1.1,0.8,1.6c0.7,0.7,1.5,1,2.4,0.8c0.6-0.1,1-0.5,1.1-1
		c0.2-0.6,0.1-1.2-0.4-1.7c-0.4-0.4-0.9-0.7-1.3-0.9c-0.6-0.3-1.2-0.6-1.8-1c-0.7-0.4-1.2-1-1.3-1.8c-0.2-1,0.1-2.2,1.1-2.8
		c0.8-0.5,2.3-0.6,3.2,0.4C71.9,6.8,72,6.9,72.1,7c0.1-0.2,0.2-0.4,0.3-0.5c0.2-0.3,0.2-0.3,0.5-0.3C72.9,7.2,72.9,8.1,72.9,9.1z"/>
	<path fill="#FFFFFF" d="M40.3,7.3c0-0.2,0-0.4,0-0.6c0.5-0.1,0.9-0.2,1.4-0.3c0.5-0.1,0.9-0.3,1.4-0.4c0.3,0.7,0.3,1.5,0.3,2.2
		c0.3-0.4,0.5-0.8,0.9-1.2C45,6.4,45.7,6,46.6,6c0.7,0,1.3,0.5,1.5,1.1c0.2,0.6-0.2,1.1-0.8,1.1c-0.3,0-0.5-0.2-0.6-0.5
		c-0.1-0.1-0.1-0.3-0.2-0.4c-0.2-0.4-0.5-0.6-1-0.4c-0.7,0.3-1.1,0.8-1.4,1.4c-0.3,0.6-0.5,1.2-0.5,1.9c0,1.1,0,2.3,0,3.4
		c0,0.2,0,0.4,0.1,0.6c0.1,0.5,0.3,0.7,0.8,0.7c0.3,0,0.5,0,0.8,0c0,0.2,0,0.4,0,0.6c-1.7,0-3.3,0-5,0c0-0.2,0-0.4,0-0.6
		c0.2,0,0.5,0,0.7,0c0.6,0,0.8-0.2,0.8-0.7c0.1-0.5,0.1-0.9,0.1-1.4c0-1.4,0-2.8,0-4.2c0-0.3,0-0.6-0.1-0.9
		c-0.1-0.4-0.3-0.5-0.6-0.6C40.9,7.4,40.6,7.4,40.3,7.3z"/>
	<path fill="#FFFFFF" d="M13.5,15.4c0,0.2,0,0.4,0,0.5c-1.1,0-2.1,0-3.2,0c0-0.2,0-0.3,0-0.5c0.2,0,0.4,0,0.5,0
		c0.3,0,0.4-0.2,0.5-0.5c0-0.2,0-0.5,0-0.7c0-2.2,0-4.4,0-6.6c0-0.2,0-0.3,0-0.5c0-0.4-0.2-0.6-0.6-0.6c-0.1,0-0.2,0-0.3,0
		c0-0.2,0-0.3,0-0.5c0.7-0.1,1.4-0.2,2.2-0.4c0,1.7,0,3.3,0,5c0.2-0.2,0.4-0.4,0.6-0.5c0.6-0.5,1.3-0.7,2.1-0.6
		c0.9,0.2,1.4,0.7,1.5,1.6c0,0.6,0,1.1,0,1.7c0,0.6,0,1.2,0,1.8c0,0.1,0,0.2,0,0.3c0,0.2,0.2,0.4,0.4,0.4c0.2,0,0.4,0,0.6,0
		c0,0.2,0,0.3,0,0.5c-1.1,0-2.2,0-3.3,0c0-0.2,0-0.3,0-0.5c0.1,0,0.3,0,0.5,0c0.4,0,0.5-0.1,0.5-0.5c0-0.1,0-0.3,0-0.4c0-1,0-2,0-3
		c0-0.1,0-0.3,0-0.4c-0.1-0.8-0.7-1.1-1.5-0.9c-0.4,0.1-0.6,0.4-0.9,0.6c-0.5,0.4-0.6,0.8-0.6,1.4c0.1,0.9,0,1.7,0,2.6
		c0,0.5,0.1,0.6,0.6,0.6C13.4,15.4,13.4,15.4,13.5,15.4z"/>
	<path fill="#FFFFFF" d="M54.3,7.3C54.3,7.2,54.3,7.2,54.3,7.3c0-0.3-0.1-0.5,0-0.6c0.1-0.1,0.3-0.1,0.4-0.1
		c0.9-0.2,1.4-0.9,1.7-1.6c0.2-0.4,0.3-0.8,0.4-1.2c0-0.1,0-0.1,0-0.2c0.2,0,0.3,0,0.5,0c0,1.1,0,2.1,0,3.2c0.9,0,1.8,0,2.8,0
		c0,0.2,0,0.4,0,0.6c-0.9,0-1.8,0-2.7,0c0,0.1,0,0.1,0,0.2c0,2,0,4,0,6c0,0.4,0.1,0.7,0.2,1.1c0.3,0.9,1.4,1,1.9,0.6
		c0.2-0.2,0.4-0.4,0.6-0.7c0.1,0.1,0.3,0.2,0.5,0.3c-0.2,0.4-0.4,0.7-0.8,1c-1,0.7-2.3,0.7-3.2,0c-0.5-0.4-0.8-1-0.8-1.7
		c0-0.5-0.1-1-0.1-1.5c0-1.6,0-3.3,0-4.9c0-0.1,0-0.2,0-0.3C55.2,7.3,54.8,7.3,54.3,7.3z"/>
	<path fill="#FFFFFF" d="M66.1,15.2c0,0.2,0,0.4,0,0.6c-1.7,0-3.4,0-5.1,0c0-0.2,0-0.4,0-0.6c0.2,0,0.5,0,0.7,0c0.6,0,0.9-0.3,1-0.9
		c0-0.3,0.1-0.6,0.1-0.9c0-1.5,0-3.1,0-4.6c0-0.2,0-0.5-0.1-0.7c-0.1-0.5-0.3-0.7-0.8-0.7c-0.3,0-0.5,0-0.8,0c0-0.2,0-0.4,0-0.6
		c1.1-0.2,2.3-0.4,3.4-0.7c0,0.1,0,0.2,0,0.3c0,2.5,0,5,0,7.5c0,0.2,0,0.5,0.1,0.7c0.1,0.5,0.3,0.7,0.8,0.7
		C65.6,15.2,65.8,15.2,66.1,15.2z"/>
	<path fill="#FFFFFF" d="M48.5,15.8c0-0.2,0-0.4,0-0.6c0.3,0,0.6,0,0.9,0c0.6,0,0.8-0.2,0.8-0.8c0-0.3,0.1-0.5,0.1-0.8
		c0-1.5,0-3,0-4.6c0-0.4,0-0.7-0.1-1.1c-0.1-0.5-0.3-0.7-0.8-0.8c-0.2,0-0.5,0-0.8,0c0-0.2,0-0.4,0-0.6c0,0,0.1-0.1,0.1-0.1
		c0.9-0.2,1.9-0.4,2.8-0.6c0.1,0,0.1,0,0.2,0c0.1,0,0.1,0,0.2,0c0,0.1,0,0.2,0,0.3c0,2.5,0,4.9,0,7.4c0,0.2,0,0.5,0,0.7
		c0.1,0.5,0.3,0.7,0.8,0.8c0.3,0,0.5,0,0.8,0c0,0.2,0,0.4,0,0.6C51.9,15.8,50.2,15.8,48.5,15.8z"/>
	<path fill="#FFFFFF" d="M24,12c-0.7,0-1.4,0-2.1,0c-0.7,0-1.4,0-2.1,0c0,1-0.1,1.9,0.4,2.8c0.6,1.1,2.2,1,2.9,0.3
		c0.1-0.1,0.3-0.2,0.3-0.4c0.1-0.2,0.2-0.3,0.4-0.2c0.1,0,0.1,0,0.2,0c-0.1,0.3-0.2,0.6-0.4,0.8c-0.8,1-2.3,1.2-3.6,0.6
		c-1-0.5-1.5-1.4-1.6-2.5c-0.1-1.1,0.1-2.1,0.9-3c1.2-1.3,3.4-1.2,4.3,0.3C23.8,11.1,24,11.5,24,12z M22.5,11.4
		c0.1-0.7-0.3-1.3-1-1.4c-0.9-0.1-1.6,0.5-1.7,1.4C20.7,11.4,21.6,11.4,22.5,11.4z"/>
</g>
</svg>
