<?xml version="1.0" encoding="utf-8"?>
<!-- Generator: Adobe Illustrator 18.0.0, SVG Export Plug-In . SVG Version: 6.00 Build 0)  -->
<!DOCTYPE svg PUBLIC "-//W3C//DTD SVG 1.1//EN" "http://www.w3.org/Graphics/SVG/1.1/DTD/svg11.dtd">
<svg version="1.1" id="Layer_1" xmlns="http://www.w3.org/2000/svg" xmlns:xlink="http://www.w3.org/1999/xlink" x="0px" y="0px"
	 viewBox="0 0 27.7 27.7" enable-background="new 0 0 27.7 27.7" xml:space="preserve">
<g>
	<path fill="#FFFFFF" d="M13.8,27.7c7.6,0,13.8-6.2,13.8-13.8S21.5,0,13.8,0C6.2,0,0,6.2,0,13.8C0,21.5,6.2,27.7,13.8,27.7z
		 M13.8,0.9c7.2,0,13,5.8,13,13s-5.8,13-13,13c-7.2,0-13-5.8-13-13C0.9,6.7,6.7,0.9,13.8,0.9z"/>
	<polygon fill="#FFFFFF" points="13.8,10 20.8,18.5 21.9,18.5 13.8,8.7 5.8,18.5 6.9,18.5 	"/>
</g>
</svg>
